<?xml version="1.0" encoding="UTF-8"?>
<svg xmlns="http://www.w3.org/2000/svg" xmlns:xlink="http://www.w3.org/1999/xlink" width="130px" height="80px" viewBox="0 0 130 80" version="1.1">
<g id="surface1">
<rect x="0" y="0" width="130" height="80" style="fill:rgb(0%,0%,0%);fill-opacity:1;stroke:none;"/>
<path style=" stroke:none;fill-rule:nonzero;fill:rgb(100%,100%,100%);fill-opacity:1;" d="M 71.675781 33.101562 C 69.9375 32.59375 68.230469 32.59375 68.078125 32.59375 C 66.523438 32.59375 65.03125 32.03125 65.03125 30.941406 C 65.03125 29.742188 66.402344 29.121094 68.078125 29.121094 C 69.664062 29.121094 71.003906 29.628906 71.066406 30.699219 C 71.066406 30.753906 71.21875 30.847656 71.402344 30.847656 L 75.210938 30.847656 C 75.421875 30.847656 75.574219 30.753906 75.546875 30.699219 C 75.484375 28.148438 72.253906 26.421875 68.078125 26.421875 C 64.175781 26.421875 60.488281 28.128906 60.488281 30.941406 C 60.488281 32.6875 61.921875 34.019531 64.449219 34.730469 C 66.21875 35.238281 67.863281 35.238281 68.078125 35.238281 C 69.449219 35.273438 71.125 35.949219 71.125 37.058594 C 71.125 38.050781 69.691406 38.726562 68.078125 38.726562 C 68.078125 38.726562 68.078125 38.726562 68.046875 38.726562 L 68.046875 41.425781 C 68.078125 41.425781 68.078125 41.425781 68.078125 41.425781 C 71.980469 41.425781 75.636719 39.871094 75.636719 37.058594 C 75.636719 35.292969 74.234375 33.832031 71.675781 33.101562 Z M 71.675781 33.101562 "/>
<path style=" stroke:none;fill-rule:nonzero;fill:rgb(100%,100%,100%);fill-opacity:1;" d="M 52.769531 43.402344 L 51.910156 43.402344 L 51.910156 41.261719 L 52.769531 41.261719 L 52.769531 42.078125 L 53.988281 42.078125 L 53.988281 41.261719 L 54.851562 41.261719 L 54.851562 43.402344 L 53.988281 43.402344 L 53.988281 42.554688 L 52.769531 42.554688 Z M 52.769531 43.402344 "/>
<path style=" stroke:none;fill-rule:nonzero;fill:rgb(100%,100%,100%);fill-opacity:1;" d="M 59.265625 41.261719 L 59.265625 43.402344 L 58.402344 43.402344 L 58.402344 41.261719 Z M 59.265625 41.261719 "/>
<path style=" stroke:none;fill-rule:nonzero;fill:rgb(100%,100%,100%);fill-opacity:1;" d="M 63.742188 43.402344 L 62.542969 41.261719 L 63.5 41.261719 L 64.015625 42.316406 C 64.050781 42.390625 64.089844 42.484375 64.140625 42.601562 C 64.183594 42.71875 64.230469 42.835938 64.273438 42.949219 C 64.355469 42.746094 64.414062 42.597656 64.449219 42.515625 C 64.484375 42.429688 64.511719 42.367188 64.535156 42.320312 L 65.042969 41.261719 L 65.976562 41.261719 L 64.777344 43.402344 Z M 63.742188 43.402344 "/>
<path style=" stroke:none;fill-rule:nonzero;fill:rgb(100%,100%,100%);fill-opacity:1;" d="M 69.875 43.402344 L 68.96875 43.402344 L 70.253906 41.261719 L 71.148438 41.261719 L 72.402344 43.402344 L 71.503906 43.402344 L 71.320312 43.039062 L 70.058594 43.039062 Z M 70.679688 41.789062 C 70.652344 41.851562 70.617188 41.917969 70.582031 41.992188 C 70.550781 42.0625 70.492188 42.179688 70.410156 42.339844 L 70.269531 42.625 L 71.101562 42.625 L 70.960938 42.339844 C 70.910156 42.253906 70.863281 42.164062 70.816406 42.066406 C 70.769531 41.96875 70.722656 41.875 70.679688 41.789062 Z M 70.679688 41.789062 "/>
<path style=" stroke:none;fill-rule:nonzero;fill:rgb(100%,100%,100%);fill-opacity:1;" d="M 78.683594 41.261719 L 78.683594 43.402344 L 77.867188 43.402344 L 76.492188 42.164062 L 76.492188 43.402344 L 75.683594 43.402344 L 75.683594 41.261719 L 76.503906 41.261719 L 77.882812 42.542969 L 77.882812 41.261719 Z M 78.683594 41.261719 "/>
<path style=" stroke:none;fill-rule:nonzero;fill:rgb(100%,100%,100%);fill-opacity:1;" d="M 83.5625 42.601562 L 82.855469 42.5 C 82.574219 42.460938 82.382812 42.394531 82.28125 42.3125 C 82.179688 42.226562 82.132812 42.105469 82.132812 41.949219 C 82.132812 41.703125 82.234375 41.519531 82.445312 41.402344 C 82.65625 41.285156 82.988281 41.226562 83.4375 41.226562 C 83.625 41.226562 83.789062 41.234375 83.929688 41.242188 C 84.074219 41.25 84.207031 41.265625 84.332031 41.289062 L 84.332031 41.761719 C 84.046875 41.734375 83.855469 41.714844 83.75 41.710938 C 83.644531 41.707031 83.535156 41.703125 83.421875 41.703125 C 83.265625 41.703125 83.152344 41.722656 83.078125 41.753906 C 83.011719 41.785156 82.976562 41.839844 82.976562 41.914062 C 82.976562 41.949219 82.988281 41.976562 83.007812 41.996094 C 83.03125 42.015625 83.078125 42.027344 83.136719 42.039062 L 83.804688 42.132812 C 83.996094 42.160156 84.132812 42.1875 84.214844 42.214844 C 84.304688 42.242188 84.375 42.273438 84.429688 42.3125 C 84.484375 42.359375 84.527344 42.414062 84.550781 42.484375 C 84.582031 42.550781 84.59375 42.632812 84.59375 42.730469 C 84.59375 42.980469 84.488281 43.160156 84.277344 43.269531 C 84.0625 43.378906 83.730469 43.433594 83.28125 43.433594 C 83.046875 43.433594 82.828125 43.425781 82.617188 43.40625 C 82.414062 43.394531 82.253906 43.371094 82.140625 43.347656 L 82.140625 42.84375 C 82.289062 42.875 82.464844 42.898438 82.667969 42.914062 C 82.867188 42.933594 83.074219 42.941406 83.28125 42.941406 C 83.441406 42.941406 83.554688 42.929688 83.617188 42.902344 C 83.679688 42.878906 83.710938 42.828125 83.710938 42.75 C 83.710938 42.703125 83.703125 42.671875 83.679688 42.648438 C 83.660156 42.625 83.617188 42.609375 83.5625 42.601562 Z M 83.5625 42.601562 "/>
<path style=" stroke:none;fill-rule:nonzero;fill:rgb(100%,100%,100%);fill-opacity:1;" d="M 88.835938 43.402344 L 87.972656 43.402344 L 87.972656 41.261719 L 88.835938 41.261719 L 88.835938 42.078125 L 90.054688 42.078125 L 90.054688 41.261719 L 90.914062 41.261719 L 90.914062 43.402344 L 90.054688 43.402344 L 90.054688 42.554688 L 88.835938 42.554688 Z M 88.835938 43.402344 "/>
<path style=" stroke:none;fill-rule:nonzero;fill:rgb(100%,100%,100%);fill-opacity:1;" d="M 96.566406 42.5 L 96.566406 41.261719 L 97.425781 41.261719 L 97.425781 42.5 C 97.425781 42.8125 97.300781 43.046875 97.050781 43.199219 C 96.804688 43.355469 96.4375 43.433594 95.941406 43.433594 C 95.417969 43.433594 95.035156 43.359375 94.796875 43.214844 C 94.558594 43.066406 94.441406 42.828125 94.441406 42.5 L 94.441406 41.261719 L 95.300781 41.261719 L 95.300781 42.5 C 95.300781 42.671875 95.347656 42.789062 95.433594 42.851562 C 95.519531 42.910156 95.6875 42.941406 95.941406 42.941406 C 96.1875 42.941406 96.351562 42.910156 96.433594 42.851562 C 96.519531 42.789062 96.566406 42.671875 96.566406 42.5 Z M 96.566406 42.5 "/>
<path style=" stroke:none;fill-rule:nonzero;fill:rgb(100%,100%,100%);fill-opacity:1;" d="M 78.480469 39.445312 L 77.574219 39.445312 L 78.859375 37.304688 L 79.753906 37.304688 L 81.011719 39.445312 L 80.109375 39.445312 L 79.925781 39.082031 L 78.664062 39.082031 Z M 79.289062 37.832031 C 79.257812 37.894531 79.226562 37.960938 79.191406 38.035156 C 79.15625 38.105469 79.097656 38.222656 79.015625 38.382812 L 78.875 38.667969 L 79.710938 38.667969 L 79.570312 38.382812 C 79.519531 38.296875 79.46875 38.207031 79.421875 38.109375 C 79.375 38.011719 79.332031 37.917969 79.289062 37.832031 Z M 79.289062 37.832031 "/>
<path style=" stroke:none;fill-rule:nonzero;fill:rgb(100%,100%,100%);fill-opacity:1;" d="M 82.410156 39.445312 L 81.550781 39.445312 L 81.550781 37.304688 L 82.410156 37.304688 L 82.410156 38.121094 L 83.628906 38.121094 L 83.628906 37.304688 L 84.492188 37.304688 L 84.492188 39.445312 L 83.628906 39.445312 L 83.628906 38.597656 L 82.410156 38.597656 Z M 82.410156 39.445312 "/>
<path style=" stroke:none;fill-rule:nonzero;fill:rgb(100%,100%,100%);fill-opacity:1;" d="M 87.402344 38.542969 L 87.402344 37.304688 L 88.261719 37.304688 L 88.261719 38.542969 C 88.261719 38.855469 88.136719 39.089844 87.890625 39.242188 C 87.640625 39.398438 87.273438 39.476562 86.777344 39.476562 C 86.253906 39.476562 85.875 39.402344 85.636719 39.257812 C 85.398438 39.109375 85.277344 38.871094 85.277344 38.542969 L 85.277344 37.304688 L 86.140625 37.304688 L 86.140625 38.542969 C 86.140625 38.714844 86.183594 38.832031 86.269531 38.894531 C 86.355469 38.953125 86.523438 38.984375 86.777344 38.984375 C 87.023438 38.984375 87.1875 38.953125 87.269531 38.894531 C 87.359375 38.832031 87.402344 38.714844 87.402344 38.542969 Z M 87.402344 38.542969 "/>
<path style=" stroke:none;fill-rule:nonzero;fill:rgb(100%,100%,100%);fill-opacity:1;" d="M 64.726562 43.9375 C 64.585938 43.804688 64.296875 43.777344 64.109375 43.863281 C 61.675781 44.921875 59.484375 45.933594 57.484375 46.886719 C 56.125 45.507812 52.503906 44.597656 47.664062 43.394531 C 47.042969 43.25 46.425781 43.089844 45.78125 42.925781 C 43.875 42.457031 43.207031 41.722656 43.730469 40.710938 C 44.445312 39.304688 47.449219 37.441406 51.523438 35.84375 C 55.410156 34.332031 59.222656 33.480469 61.011719 33.730469 C 61.582031 33.804688 62.226562 34.011719 62.035156 34.832031 C 61.988281 34.976562 62.179688 35.125 62.417969 35.152344 C 62.675781 35.167969 62.914062 35.066406 62.941406 34.902344 C 63.226562 33.65625 61.988281 33.289062 61.222656 33.171875 C 56.886719 32.574219 44.613281 37.105469 42.851562 40.535156 C 42.207031 41.828125 43.109375 42.867188 45.425781 43.453125 C 46.066406 43.617188 46.710938 43.777344 47.328125 43.925781 C 52.523438 45.214844 55.71875 46.066406 56.769531 47.222656 C 48.332031 51.285156 44.042969 54.191406 44.757812 55.4375 C 44.875 55.640625 45.234375 55.949219 46.234375 55.949219 C 46.304688 55.949219 46.402344 55.949219 46.472656 55.949219 C 49.664062 55.804688 56.625 52.871094 57.960938 48.71875 C 58.125 48.234375 58.078125 47.796875 57.886719 47.398438 C 59.914062 46.445312 62.152344 45.421875 64.632812 44.335938 C 64.847656 44.230469 64.894531 44.054688 64.726562 43.9375 Z M 57.054688 48.617188 C 55.765625 52.578125 49.023438 55.261719 46.402344 55.390625 C 46.164062 55.390625 45.710938 55.390625 45.636719 55.246094 C 45.375 54.804688 46.710938 53.558594 49.046875 52.109375 C 51.023438 50.859375 53.71875 49.410156 57.078125 47.78125 C 57.171875 48.046875 57.148438 48.308594 57.054688 48.617188 Z M 57.054688 48.617188 "/>
</g>
</svg>
